<svg width="512" height="512" enable-background="new 0 0 512 512" version="1.1" viewBox="0 0 512 512" xmlns="http://www.w3.org/2000/svg">
 <g>
  <path d="m256 0c-140.7 0-256 115.3-256 256s115.3 256 256 256 256-115.3 256-256-115.3-256-256-256zm-168 354.4c-17.1-28.8-27-62.4-27-98.4 0-107.1 86.4-194.7 194.4-195 36.3 0 69.9 9.899 99 27 8.699 5.101 10.5 16.5 3.6 23.7-45.9 45.9-200.4 200.4-246.3 246.3-7.2 6.901-18.6 5.101-23.7-3.6zm168.6 96.6c-36.3 0-69.9-9.901-99-27-8.699-5.099-10.5-16.8-3.3-23.7l246-246c6.899-7.2 18.6-5.4 23.7 3.3 17.1 28.8 27 62.4 27 98.4 0 107.7-87 194.7-194.4 195z"/>
 </g>
</svg>
