<svg width="469.3" height="469.3" version="1.1" viewBox="0 0 469.3 469.3" xmlns="http://www.w3.org/2000/svg">
 <g>
  <g>
   <g>
    <path d="m466.2 88.46-85.33-85.33c-2-2-4.708-3.125-7.542-3.125h-330.7c-23.52 0-42.67 19.14-42.67 42.67v384c0 23.53 19.15 42.67 42.67 42.67h384c23.52 0 42.67-19.14 42.67-42.67v-330.7c-1e-3 -2.833-1.126-5.542-3.126-7.542zm-359.5-67.12h234.7v128c0 11.76-9.563 21.33-21.33 21.33h-192c-11.77 0-21.33-9.573-21.33-21.33zm277.3 426.7h-298.7v-192h298.7zm64-21.33c0 11.76-9.563 21.33-21.33 21.33h-21.33v-202.7c0-5.896-4.771-10.67-10.67-10.67h-320c-5.896 0-10.67 4.771-10.67 10.67v202.7h-21.33c-11.77 0-21.33-9.573-21.33-21.33v-384c0-11.76 9.563-21.33 21.33-21.33h42.67v128c-1e-3 23.53 19.14 42.67 42.67 42.67h192c23.52 0 42.67-19.14 42.67-42.67v-128h6.25l79.08 79.08z"/>
    <path d="m266.7 149.3h42.67c5.896 0 10.67-4.771 10.67-10.67v-85.33c0-5.896-4.771-10.67-10.67-10.67h-42.67c-5.896 0-10.67 4.771-10.67 10.67v85.33c0 5.896 4.771 10.67 10.67 10.67zm10.67-85.33h21.33v64h-21.33z"/>
   </g>
  </g>
 </g>
</svg>
