<svg width="504" height="416" version="1.1" viewBox="0 0 504 416" xmlns="http://www.w3.org/2000/svg">
 <g id="_10-awareness" transform="translate(-4,-48)" data-name="10-awareness">
  <g id="linear_color" data-name="linear color">
   <path d="m376 48a32.04 32.04 0 0 0-32 32v5.327c-34.16 36.16-80.39 60.92-113.6 75.47-40.82 17.86-78.37 27.21-94.38 27.21h-96a36.04 36.04 0 0 0-36 36v64a36.04 36.04 0 0 0 36 36h20v84a12 12 0 0 0 12 12h40a12 12 0 0 0 11.64-9.089l21.55-86.2c18.83 2.48 50.86 11.48 85.18 26.5 33.23 14.54 79.46 39.3 113.6 75.47v5.323a32 32 0 0 0 64 0v-352a32.04 32.04 0 0 0-32-32zm-252 252h-40v-88h40zm-96-12v-64a12.01 12.01 0 0 1 12-12h20v88h-20a12.01 12.01 0 0 1-12-12zm74.63 108h-18.63v-72h36.63zm45.37-95.07v-89.86c42.18-5.617 132.9-36.86 196-92.46v274.8c-63.06-55.6-153.8-86.84-196-92.46zm236 131.1a8 8 0 0 1-16 0v-352a8 8 0 0 1 16 0z"/>
   <path d="m496 244h-40a12 12 0 0 0 0 24h40a12 12 0 0 0 0-24z"/>
   <path d="m436.3 181.3a11.94 11.94 0 0 0 5.191-1.188l36.05-17.33a12 12 0 0 0-10.4-21.63l-36.05 17.33a12 12 0 0 0 5.209 22.82z"/>
   <path d="m477.5 349.2-36.05-17.33a12 12 0 0 0-10.4 21.63l36.05 17.33a12 12 0 0 0 10.4-21.63z"/>
  </g>
 </g>
</svg>
