<?xml version="1.0" encoding="UTF-8" standalone="no"?>
<svg
   xmlns:dc="http://purl.org/dc/elements/1.1/"
   xmlns:cc="http://creativecommons.org/ns#"
   xmlns:rdf="http://www.w3.org/1999/02/22-rdf-syntax-ns#"
   xmlns:svg="http://www.w3.org/2000/svg"
   xmlns="http://www.w3.org/2000/svg"
   style="fill:none"
   id="svg4"
   version="1.1"
   viewBox="0 0 20 20"
   height="20"
   width="20">
  <metadata
     id="metadata10">
    <rdf:RDF>
      <cc:Work
         rdf:about="">
        <dc:format>image/svg+xml</dc:format>
        <dc:type
           rdf:resource="http://purl.org/dc/dcmitype/StillImage" />
        <dc:title></dc:title>
      </cc:Work>
    </rdf:RDF>
  </metadata>
  <defs
     id="defs8" />
  <path
     style="fill:#000000"
     id="path2"
     d="M 10,0 C 4.48,0 0,4.48 0,10 0,15.52 4.48,20 10,20 15.52,20 20,15.52 20,10 20,4.48 15.52,0 10,0 Z M 5.07,16.28 C 5.5,15.38 8.12,14.5 10,14.5 c 1.88,0 4.51,0.88 4.93,1.78 C 13.57,17.36 11.86,18 10,18 8.14,18 6.43,17.36 5.07,16.28 Z M 16.36,14.83 C 14.93,13.09 11.46,12.5 10,12.5 8.54,12.5 5.07,13.09 3.64,14.83 2.62,13.49 2,11.82 2,10 2,5.59 5.59,2 10,2 c 4.41,0 8,3.59 8,8 0,1.82 -0.62,3.49 -1.64,4.83 z M 10,4 C 8.06,4 6.5,5.56 6.5,7.5 6.5,9.44 8.06,11 10,11 11.94,11 13.5,9.44 13.5,7.5 13.5,5.56 11.94,4 10,4 Z m 0,5 C 9.17,9 8.5,8.33 8.5,7.5 8.5,6.67 9.17,6 10,6 10.83,6 11.5,6.67 11.5,7.5 11.5,8.33 10.83,9 10,9 Z" />
</svg>
