<svg width="20" height="14" fill="none" version="1.1" viewBox="0 0 20 14" xmlns="http://www.w3.org/2000/svg">
 <path d="m7 7c1.93 0 3.5-1.57 3.5-3.5s-1.57-3.5-3.5-3.5-3.5 1.57-3.5 3.5 1.57 3.5 3.5 3.5zm0-5c0.83 0 1.5 0.67 1.5 1.5s-0.67 1.5-1.5 1.5-1.5-0.67-1.5-1.5 0.67-1.5 1.5-1.5zm0.05 10h-4.28c0.99-0.5 2.7-1 4.23-1 0.11 0 0.23 0.01 0.34 0.01 0.34-0.73 0.93-1.33 1.64-1.81-0.73-0.13-1.42-0.2-1.98-0.2-2.34 0-7 1.17-7 3.5v1.5h7v-1.5c0-0.17 0.02-0.34 0.05-0.5zm7.45-2.5c-1.84 0-5.5 1.01-5.5 3v1.5h11v-1.5c0-1.99-3.66-3-5.5-3zm1.21-1.82c0.76-0.43 1.29-1.24 1.29-2.18 0-1.38-1.12-2.5-2.5-2.5s-2.5 1.12-2.5 2.5c0 0.94 0.53 1.75 1.29 2.18 0.36 0.2 0.77 0.32 1.21 0.32s0.85-0.12 1.21-0.32z" fill="#000"/>
</svg>
