<?xml version="1.0" encoding="UTF-8" standalone="no"?>
<svg
   xmlns:dc="http://purl.org/dc/elements/1.1/"
   xmlns:cc="http://creativecommons.org/ns#"
   xmlns:rdf="http://www.w3.org/1999/02/22-rdf-syntax-ns#"
   xmlns:svg="http://www.w3.org/2000/svg"
   xmlns="http://www.w3.org/2000/svg"
   id="svg6"
   version="1.1"
   fill="none"
   viewBox="0 0 16 20"
   height="20"
   width="16">
  <metadata
     id="metadata12">
    <rdf:RDF>
      <cc:Work
         rdf:about="">
        <dc:format>image/svg+xml</dc:format>
        <dc:type
           rdf:resource="http://purl.org/dc/dcmitype/StillImage" />
        <dc:title></dc:title>
      </cc:Work>
    </rdf:RDF>
  </metadata>
  <defs
     id="defs10" />
  <path
     style="fill:#000000"
     id="path2"
     fill="#464A53"
     d="M10 0H2C0.9 0 0 0.9 0 2V18C0 19.1 0.89 20 1.99 20H14C15.1 20 16 19.1 16 18V6L10 0ZM14 18H2V2H9V7H14V18Z" />
  <path
     style="fill:#000000"
     id="path4"
     fill="#464A53"
     d="M5.02994 9.03C3.65994 10.4 3.65994 12.61 5.02994 13.98C6.14994 15.1 7.82994 15.29 9.15994 14.57L11.0399 16.45L12.4499 15.04L10.5699 13.16C11.2799 11.83 11.0999 10.15 9.97994 9.03C8.60994 7.66 6.38994 7.66 5.02994 9.03ZM8.55994 12.56C7.96994 13.15 7.01994 13.15 6.43994 12.56C5.84994 11.97 5.84994 11.02 6.43994 10.44C7.02994 9.85 7.97994 9.85 8.55994 10.44C9.14994 11.03 9.14994 11.97 8.55994 12.56Z" />
</svg>
